<mxfile host="app.diagrams.net" agent="Mozilla/5.0 (Windows NT 10.0; Win64; x64) AppleWebKit/537.36 (KHTML, like Gecko) Chrome/133.0.0.0 Safari/537.36" version="26.0.16">
  <diagram name="Página-1" id="XZNp78vzG-QN1Yubsuq2">
    <mxGraphModel dx="2868" dy="1504" grid="1" gridSize="10" guides="1" tooltips="1" connect="1" arrows="1" fold="1" page="1" pageScale="1" pageWidth="827" pageHeight="1169" background="#ffffff" math="0" shadow="0">
      <root>
        <mxCell id="0" />
        <mxCell id="1" parent="0" />
        <mxCell id="3xISLZwC5gBrsgPOUznr-1" value="" style="ellipse;whiteSpace=wrap;html=1;aspect=fixed;fillColor=none;" vertex="1" parent="1">
          <mxGeometry x="60" y="180" width="380" height="380" as="geometry" />
        </mxCell>
        <mxCell id="3xISLZwC5gBrsgPOUznr-2" value="&lt;font style=&quot;font-size: 48px;&quot;&gt;PODER&lt;/font&gt;" style="text;html=1;align=center;verticalAlign=middle;whiteSpace=wrap;rounded=0;" vertex="1" parent="1">
          <mxGeometry x="10" y="140" width="170" height="40" as="geometry" />
        </mxCell>
        <mxCell id="3xISLZwC5gBrsgPOUznr-4" value="" style="ellipse;whiteSpace=wrap;html=1;aspect=fixed;fillColor=none;shadow=0;gradientColor=none;" vertex="1" parent="1">
          <mxGeometry x="340" y="190" width="380" height="380" as="geometry" />
        </mxCell>
        <mxCell id="3xISLZwC5gBrsgPOUznr-5" value="" style="ellipse;whiteSpace=wrap;html=1;aspect=fixed;fillColor=none;" vertex="1" parent="1">
          <mxGeometry x="205" y="370" width="350" height="350" as="geometry" />
        </mxCell>
        <mxCell id="3xISLZwC5gBrsgPOUznr-6" value="&lt;span style=&quot;font-size: 48px;&quot;&gt;LEGITIMIDADE&lt;/span&gt;" style="text;html=1;align=center;verticalAlign=middle;whiteSpace=wrap;rounded=0;" vertex="1" parent="1">
          <mxGeometry x="570" y="140" width="170" height="40" as="geometry" />
        </mxCell>
        <mxCell id="3xISLZwC5gBrsgPOUznr-7" value="&lt;font style=&quot;font-size: 48px;&quot;&gt;URGÊNCIA&lt;/font&gt;" style="text;html=1;align=center;verticalAlign=middle;whiteSpace=wrap;rounded=0;" vertex="1" parent="1">
          <mxGeometry x="90" y="710" width="170" height="40" as="geometry" />
        </mxCell>
        <mxCell id="3xISLZwC5gBrsgPOUznr-8" value="Dormente" style="text;html=1;align=center;verticalAlign=middle;whiteSpace=wrap;rounded=0;fontStyle=1" vertex="1" parent="1">
          <mxGeometry x="230" y="200" width="60" height="30" as="geometry" />
        </mxCell>
        <mxCell id="3xISLZwC5gBrsgPOUznr-9" value="Dominante" style="text;html=1;align=center;verticalAlign=middle;whiteSpace=wrap;rounded=0;fontStyle=1" vertex="1" parent="1">
          <mxGeometry x="360" y="290" width="60" height="30" as="geometry" />
        </mxCell>
        <mxCell id="3xISLZwC5gBrsgPOUznr-10" value="Definitivo" style="text;html=1;align=center;verticalAlign=middle;whiteSpace=wrap;rounded=0;fontStyle=1" vertex="1" parent="1">
          <mxGeometry x="350" y="370" width="60" height="30" as="geometry" />
        </mxCell>
        <mxCell id="3xISLZwC5gBrsgPOUznr-11" value="Perigoso" style="text;html=1;align=center;verticalAlign=middle;whiteSpace=wrap;rounded=0;fontStyle=1" vertex="1" parent="1">
          <mxGeometry x="270" y="420" width="60" height="30" as="geometry" />
        </mxCell>
        <mxCell id="3xISLZwC5gBrsgPOUznr-12" value="Exigente" style="text;html=1;align=center;verticalAlign=middle;whiteSpace=wrap;rounded=0;fontStyle=1" vertex="1" parent="1">
          <mxGeometry x="290" y="650" width="60" height="30" as="geometry" />
        </mxCell>
        <mxCell id="3xISLZwC5gBrsgPOUznr-13" value="Dependente" style="text;html=1;align=center;verticalAlign=middle;whiteSpace=wrap;rounded=0;fontStyle=1" vertex="1" parent="1">
          <mxGeometry x="440" y="420" width="60" height="30" as="geometry" />
        </mxCell>
        <mxCell id="3xISLZwC5gBrsgPOUznr-14" value="Discricionário" style="text;html=1;align=center;verticalAlign=middle;whiteSpace=wrap;rounded=0;fontStyle=1" vertex="1" parent="1">
          <mxGeometry x="473" y="200" width="60" height="30" as="geometry" />
        </mxCell>
        <mxCell id="3xISLZwC5gBrsgPOUznr-15" value="Gerente do projeto" style="text;html=1;align=center;verticalAlign=middle;whiteSpace=wrap;rounded=0;fillColor=#dae8fc;strokeColor=#6c8ebf;" vertex="1" parent="1">
          <mxGeometry x="440" y="460" width="60" height="30" as="geometry" />
        </mxCell>
        <mxCell id="3xISLZwC5gBrsgPOUznr-16" value="Cidadãos de alegre" style="text;html=1;align=center;verticalAlign=middle;whiteSpace=wrap;rounded=0;fillColor=#dae8fc;strokeColor=#6c8ebf;" vertex="1" parent="1">
          <mxGeometry x="210" y="290" width="60" height="30" as="geometry" />
        </mxCell>
        <mxCell id="3xISLZwC5gBrsgPOUznr-17" value="Equipe do projeto" style="text;html=1;align=center;verticalAlign=middle;whiteSpace=wrap;rounded=0;fillColor=#dae8fc;strokeColor=#6c8ebf;" vertex="1" parent="1">
          <mxGeometry x="334" y="590" width="60" height="30" as="geometry" />
        </mxCell>
        <mxCell id="3xISLZwC5gBrsgPOUznr-18" value="UFES" style="text;html=1;align=center;verticalAlign=middle;whiteSpace=wrap;rounded=0;fillColor=#dae8fc;strokeColor=#6c8ebf;" vertex="1" parent="1">
          <mxGeometry x="510" y="320" width="60" height="30" as="geometry" />
        </mxCell>
        <mxCell id="3xISLZwC5gBrsgPOUznr-19" value="Governo do ES" style="text;html=1;align=center;verticalAlign=middle;whiteSpace=wrap;rounded=0;fillColor=#dae8fc;strokeColor=#6c8ebf;" vertex="1" parent="1">
          <mxGeometry x="360" y="320" width="60" height="30" as="geometry" />
        </mxCell>
        <mxCell id="3xISLZwC5gBrsgPOUznr-20" value="Secretarias de obras" style="text;html=1;align=center;verticalAlign=middle;whiteSpace=wrap;rounded=0;fillColor=#dae8fc;strokeColor=#6c8ebf;" vertex="1" parent="1">
          <mxGeometry x="350" y="400" width="60" height="30" as="geometry" />
        </mxCell>
        <mxCell id="3xISLZwC5gBrsgPOUznr-23" value="" style="rounded=0;whiteSpace=wrap;html=1;" vertex="1" parent="1">
          <mxGeometry x="130" y="1300" width="200" height="100" as="geometry" />
        </mxCell>
        <mxCell id="3xISLZwC5gBrsgPOUznr-24" value="&lt;font style=&quot;color: rgb(204, 204, 204); font-size: 24px;&quot;&gt;Manter Satisfeito&lt;/font&gt;" style="text;html=1;align=center;verticalAlign=middle;whiteSpace=wrap;rounded=0;" vertex="1" parent="1">
          <mxGeometry x="130" y="1300" width="200" height="105" as="geometry" />
        </mxCell>
        <mxCell id="3xISLZwC5gBrsgPOUznr-26" value="" style="rounded=0;whiteSpace=wrap;html=1;" vertex="1" parent="1">
          <mxGeometry x="350" y="1300" width="200" height="100" as="geometry" />
        </mxCell>
        <mxCell id="3xISLZwC5gBrsgPOUznr-27" value="&lt;font style=&quot;color: rgb(204, 204, 204); font-size: 24px;&quot;&gt;Gerenciar expectativas de perto&lt;/font&gt;" style="text;html=1;align=center;verticalAlign=middle;whiteSpace=wrap;rounded=0;" vertex="1" parent="1">
          <mxGeometry x="350" y="1300" width="200" height="105" as="geometry" />
        </mxCell>
        <mxCell id="3xISLZwC5gBrsgPOUznr-28" value="" style="rounded=0;whiteSpace=wrap;html=1;" vertex="1" parent="1">
          <mxGeometry x="130" y="1420" width="200" height="100" as="geometry" />
        </mxCell>
        <mxCell id="3xISLZwC5gBrsgPOUznr-29" value="&lt;font style=&quot;color: rgb(204, 204, 204); font-size: 24px;&quot;&gt;Monitorar&lt;/font&gt;" style="text;html=1;align=center;verticalAlign=middle;whiteSpace=wrap;rounded=0;" vertex="1" parent="1">
          <mxGeometry x="130" y="1420" width="200" height="105" as="geometry" />
        </mxCell>
        <mxCell id="3xISLZwC5gBrsgPOUznr-30" value="" style="rounded=0;whiteSpace=wrap;html=1;" vertex="1" parent="1">
          <mxGeometry x="350" y="1417.5" width="200" height="100" as="geometry" />
        </mxCell>
        <mxCell id="3xISLZwC5gBrsgPOUznr-31" value="&lt;font style=&quot;color: rgb(204, 204, 204); font-size: 24px;&quot;&gt;Manter informado&lt;/font&gt;" style="text;html=1;align=center;verticalAlign=middle;whiteSpace=wrap;rounded=0;" vertex="1" parent="1">
          <mxGeometry x="350" y="1417.5" width="200" height="105" as="geometry" />
        </mxCell>
        <mxCell id="3xISLZwC5gBrsgPOUznr-32" value="&lt;b&gt;&lt;font style=&quot;font-size: 40px;&quot;&gt;PODER&lt;/font&gt;&lt;/b&gt;" style="text;html=1;align=center;verticalAlign=middle;whiteSpace=wrap;rounded=0;rotation=-90;" vertex="1" parent="1">
          <mxGeometry y="1387.5" width="60" height="30" as="geometry" />
        </mxCell>
        <mxCell id="3xISLZwC5gBrsgPOUznr-33" value="BAIXO" style="text;html=1;align=center;verticalAlign=middle;whiteSpace=wrap;rounded=0;rotation=-90;fontStyle=1" vertex="1" parent="1">
          <mxGeometry x="60" y="1452.5" width="60" height="30" as="geometry" />
        </mxCell>
        <mxCell id="3xISLZwC5gBrsgPOUznr-35" value="ALTO" style="text;html=1;align=center;verticalAlign=middle;whiteSpace=wrap;rounded=0;rotation=-90;fontStyle=1" vertex="1" parent="1">
          <mxGeometry x="60" y="1335" width="60" height="30" as="geometry" />
        </mxCell>
        <mxCell id="3xISLZwC5gBrsgPOUznr-36" value="BAIXO" style="text;html=1;align=center;verticalAlign=middle;whiteSpace=wrap;rounded=0;rotation=0;fontStyle=1" vertex="1" parent="1">
          <mxGeometry x="190" y="1540" width="60" height="30" as="geometry" />
        </mxCell>
        <mxCell id="3xISLZwC5gBrsgPOUznr-37" value="ALTO" style="text;html=1;align=center;verticalAlign=middle;whiteSpace=wrap;rounded=0;rotation=0;fontStyle=1" vertex="1" parent="1">
          <mxGeometry x="420" y="1540" width="60" height="30" as="geometry" />
        </mxCell>
        <mxCell id="3xISLZwC5gBrsgPOUznr-38" value="&lt;b&gt;&lt;font style=&quot;font-size: 40px;&quot;&gt;Interesse&lt;/font&gt;&lt;/b&gt;" style="text;html=1;align=center;verticalAlign=middle;whiteSpace=wrap;rounded=0;rotation=0;" vertex="1" parent="1">
          <mxGeometry x="330" y="1580" width="60" height="30" as="geometry" />
        </mxCell>
        <mxCell id="3xISLZwC5gBrsgPOUznr-39" value="Gerente do projeto" style="text;html=1;align=center;verticalAlign=middle;whiteSpace=wrap;rounded=0;fillColor=#dae8fc;strokeColor=#6c8ebf;" vertex="1" parent="1">
          <mxGeometry x="360" y="1422.5" width="60" height="30" as="geometry" />
        </mxCell>
        <mxCell id="3xISLZwC5gBrsgPOUznr-40" value="Cidadãos de alegre" style="text;html=1;align=center;verticalAlign=middle;whiteSpace=wrap;rounded=0;fillColor=#dae8fc;strokeColor=#6c8ebf;" vertex="1" parent="1">
          <mxGeometry x="140" y="1430" width="60" height="30" as="geometry" />
        </mxCell>
        <mxCell id="3xISLZwC5gBrsgPOUznr-41" value="Equipe do projeto" style="text;html=1;align=center;verticalAlign=middle;whiteSpace=wrap;rounded=0;fillColor=#dae8fc;strokeColor=#6c8ebf;" vertex="1" parent="1">
          <mxGeometry x="430" y="1422.5" width="60" height="30" as="geometry" />
        </mxCell>
        <mxCell id="3xISLZwC5gBrsgPOUznr-42" value="UFES" style="text;html=1;align=center;verticalAlign=middle;whiteSpace=wrap;rounded=0;fillColor=#dae8fc;strokeColor=#6c8ebf;" vertex="1" parent="1">
          <mxGeometry x="205" y="1430" width="60" height="30" as="geometry" />
        </mxCell>
        <mxCell id="3xISLZwC5gBrsgPOUznr-43" value="Governo do ES" style="text;html=1;align=center;verticalAlign=middle;whiteSpace=wrap;rounded=0;fillColor=#dae8fc;strokeColor=#6c8ebf;" vertex="1" parent="1">
          <mxGeometry x="354" y="1310" width="60" height="30" as="geometry" />
        </mxCell>
        <mxCell id="3xISLZwC5gBrsgPOUznr-44" value="Secretarias de obras" style="text;html=1;align=center;verticalAlign=middle;whiteSpace=wrap;rounded=0;fillColor=#dae8fc;strokeColor=#6c8ebf;" vertex="1" parent="1">
          <mxGeometry x="430" y="1310" width="60" height="30" as="geometry" />
        </mxCell>
        <mxCell id="3xISLZwC5gBrsgPOUznr-45" value="&lt;font style=&quot;color: rgb(245, 245, 245);&quot;&gt;Text&lt;/font&gt;" style="text;html=1;align=center;verticalAlign=middle;whiteSpace=wrap;rounded=0;" vertex="1" parent="1">
          <mxGeometry x="354" y="1250" width="60" height="30" as="geometry" />
        </mxCell>
        <mxCell id="3xISLZwC5gBrsgPOUznr-46" value="&lt;font style=&quot;color: rgb(245, 245, 245);&quot;&gt;Text&lt;/font&gt;" style="text;html=1;align=center;verticalAlign=middle;whiteSpace=wrap;rounded=0;" vertex="1" parent="1">
          <mxGeometry x="570" y="1357.5" width="60" height="30" as="geometry" />
        </mxCell>
      </root>
    </mxGraphModel>
  </diagram>
</mxfile>
